<?xml version="1.0" encoding="UTF-8" standalone="no"?>
<svg
   id="a"
   width="22"
   height="22"
   version="1.1"
   sodipodi:docname="rosa-linux-22.svg"
   inkscape:version="1.1 (c4e8f9ed74, 2021-05-24)"
   xmlns:inkscape="http://www.inkscape.org/namespaces/inkscape"
   xmlns:sodipodi="http://sodipodi.sourceforge.net/DTD/sodipodi-0.dtd"
   xmlns="http://www.w3.org/2000/svg"
   xmlns:svg="http://www.w3.org/2000/svg">
  <defs
     id="defs15" />
  <sodipodi:namedview
     id="namedview13"
     pagecolor="#ffffff"
     bordercolor="#666666"
     borderopacity="1.0"
     inkscape:pageshadow="2"
     inkscape:pageopacity="0.0"
     inkscape:pagecheckerboard="0"
     showgrid="false"
     inkscape:zoom="11.340909"
     inkscape:cx="-10.360721"
     inkscape:cy="9.5230461"
     inkscape:window-width="1366"
     inkscape:window-height="699"
     inkscape:window-x="0"
     inkscape:window-y="0"
     inkscape:window-maximized="1"
     inkscape:current-layer="a" />
  <g
     transform="matrix(0.2,0,0,0.2,102.15445,-25.892614)"
     fill="#ececec"
     id="g10">
    <path
       d="m -460,221 c -2,-0.1 -3,-0.3 -5,-0.9 -8,-2 -15,-6 -20,-12 -5,-5 -8,-11 -9,-19 -0.5,-3 -0.6,-4 -0.6,-7 0.01,-7 1,-12 4,-18 1,-3 3,-5 5,-8 4,-4 8,-8 13,-10 3,-2 5,-2 8,-3 3,-0.7 4,-0.9 8,-1 8,-0.2 13,0.9 19,4 4,2 6,4 9,7 4,4 7,8 9,13 2,5 3,9 3,15 0.003,4 -0.4,7 -1,11 -1,5 -4,10 -7,13 -2,2 -4,4 -6,6 -3,3 -7,5 -12,7 -1,0.6 -5,2 -7,2 -3,0.4 -7,0.6 -10,0.3 z m 7,-11 c 5,-1 10,-4 14,-8 3,-3 5,-7 6,-11 1,-4 0.9,-8 -1,-28 -0.3,-3 -0.5,-5 -0.6,-5 l -0.09,-0.7 -0.5,4e-4 c -1,0.001 -20,2 -26,3 -3,0.4 -4,0.6 -6,1 -5,2 -8,5 -12,9 -2,2 -4,7 -4,10 -0.3,2 -0.3,8 0.009,10 0.3,2 1,4 2,6 0.6,1 2,4 3,5 0.7,1 3,4 5,5 3,2 6,4 9,5 3,0.7 4,0.8 7,0.7 3,-0.04 3,-0.08 5,-0.4 z"
       opacity="0.7"
       id="path2" />
    <path
       d="m -461,206 c -3,-0.4 -6,-2 -9,-3 -0.9,-0.6 -1,-0.7 -1,-1 -2e-4,-0.3 0.09,-0.4 2,-1 2,-0.9 4,-2 7,-4 3,-2 6,-4 9,-8 5,-5 9,-10 13,-16 0.8,-1 1,-2 1,-2 0.4,-0.04 0.4,-0.006 0.5,0.4 0.1,0.7 0.8,7 1,10 0.5,6 -0.03,9 -2,13 -1,2 -2,4 -4,5 -2,2 -4,3 -5,4 -2,0.9 -4,2 -6,2 -2,0.3 -5,0.4 -6,0.1 z"
       opacity="0.7"
       id="path4" />
    <path
       d="m -475,197 c -0.6,-0.8 -2,-4 -2,-5 -2,-4 -2,-8 -0.7,-12 0.4,-1 1,-4 2,-5 2,-3 5,-7 8,-8 4,-2 5,-2 14,-3 5,-0.5 12,-1 13,-1 0.3,-2e-4 0.4,0.06 0.4,0.2 4e-4,0.5 -2,5 -4,8 -4,7 -10,14 -17,19 -4,3 -8,6 -12,7 -1,0.5 -2,0.5 -2,-0.04 z"
       opacity="0.7"
       id="path6" />
    <path
       d="m -460,229 c -3,-0.3 -6,-0.9 -8,-1 -6,-2 -12,-5 -16,-8 -2,-2 -7,-6 -8,-8 -5,-7 -9,-15 -10,-23 -0.3,-3 -0.4,-8 -0.2,-10 0.8,-9 5,-18 10,-25 2,-2 6,-6 8,-8 3,-3 9,-6 13,-7 2,-0.7 6,-2 8,-2 0.9,-0.2 3,-0.2 7,-0.2 5,-2e-4 6,0.03 8,0.4 6,1 11,3 17,6 6,3 12,9 15,15 2,4 4,8 5,12 1,5 2,8 2,15 -0.08,4 -0.1,5 -0.6,7 -1,5 -3,11 -6,15 -6,9 -15,16 -25,20 -5,2 -10,2 -15,2 -2,-0.01 -4,-0.05 -4,-0.09 z m 9,-3 c 5,-0.5 11,-2 15,-4 5,-2 8,-5 11,-8 6,-6 10,-13 12,-22 0.7,-3 0.9,-6 0.8,-11 -0.1,-5 -0.2,-6 -1,-10 -1,-4 -3,-7 -5,-11 -6,-9 -15,-17 -26,-20 -3,-0.9 -5,-1 -8,-1 -8,-0.5 -15,0.8 -22,4 -1,0.7 -3,2 -4,2 -7,4 -12,10 -15,17 -7,14 -6,31 3,44 3,4 7,9 11,12 2,2 7,4 11,6 3,1 8,2 11,2 2,0.1 6,0.1 8,-0.07 z"
       opacity="0.7"
       id="path8" />
  </g>
</svg>
